<svg xmlns="http://www.w3.org/2000/svg" width="24" height="24" fill="none" viewBox="0 0 24 24" id="restart-button">
  <path fill="#000" fill-rule="evenodd" d="M12 2.75C6.89137 2.75 2.75 6.89137 2.75 12C2.75 17.1086 6.89137 21.25 12 21.25C17.1086 21.25 21.25 17.1086 21.25 12C21.25 6.89137 17.1086 2.75 12 2.75ZM1.25 12C1.25 6.06294 6.06294 1.25 12 1.25C17.9371 1.25 22.75 6.06294 22.75 12C22.75 17.9371 17.9371 22.75 12 22.75C6.06294 22.75 1.25 17.9371 1.25 12Z" clip-rule="evenodd"></path>
  <path fill="#9A9A9A" fill-rule="evenodd" d="M8.75009 5.25009L8.74985 7.25619C9.67416 6.62179 10.7937 6.25 12 6.25C15.1756 6.25 17.75 8.82436 17.75 12C17.75 15.1756 15.1756 17.75 12 17.75C8.82436 17.75 6.25 15.1756 6.25 12V11.25H7.75V12C7.75 14.3472 9.65279 16.25 12 16.25C14.3472 16.25 16.25 14.3472 16.25 12C16.25 9.65279 14.3472 7.75 12 7.75C10.61 7.75 9.37595 8.41646 8.59931 9.45043L7.24936 11.2477L7.25009 5.24991L8.75009 5.25009Z" clip-rule="evenodd"></path>
</svg>
